Patient4_TMGait_0pt3_01_left_16_EMG.mot
version=1
nRows=36
nColumns=33
inDegrees=no
endheader
time	1LAddLong	2LGlutMax	3LGlutMed	4LIliopsoas	5LSemiMemb	6LBicFemLong	7LRecFem	8LVastMed	9LVastLat	10LGasMed	11LTibAnt	12lTibPost	13LPeroneusLong	14LSol	15LExtDigLong	16LFlexDigLong	17RAddLong	18RGlutMax	19RGlutMed	20RIliopsoas	21RSemiMemb	22RBicFemLong	23RRecFem	24RVastMed	25RVastLat	26RGasMed	27RTibAnt	28RTibPost	29RPeroneusLong	30RSol	31RExtDigLong	32RFlexDigLong
29.62	0.00412	-0.3154	0.042877	0.012207	0.006866	-0.028229	-0.00061	0.001373	0.022888	0.029144	-0.2388	0.006561	-0.048828	0.071869	0.40771	0.004578	0.005188	0.26794	0.39261	0.025177	-0.011902	-0.31906	-0.12024	-0.048828	0.09964	-0.009918	0.10529	-0.003204	-0.9581	-0.020599	0.000763	0.002899
29.621	0.014954	-0.31647	-0.010986	0.012512	0.005035	-0.035553	-0.015411	-0.008545	0.032959	-0.014801	-0.15289	0.005798	0.005188	0.12604	0.44968	0.020752	0.045166	0.21744	0.21271	-0.063324	-0.14389	-0.31982	-0.12756	-0.023346	0.17044	0.004425	0.14267	-0.002136	0.47394	-0.046997	-0.005951	0.000763
29.622	0.005798	-0.32669	-0.058746	-0.005341	0.001678	-0.059662	-0.012665	-0.003052	0.042419	-0.006714	-0.095978	0.008698	0.009003	-0.029602	0.31754	0.00946	0.036011	0.2536	0.25742	-0.013275	-0.23254	0.00473	-0.20126	0.012665	0.47226	-0.009155	-0.14099	-0.003662	0.23727	-0.032806	-0.000153	-0.005341
29.623	-0.000153	-0.28351	-0.070801	0.003815	0.008545	-0.050201	-0.010834	-0.007477	0.056152	-0.018768	-0.058289	0.002747	0.0354	0.01358	0.50034	0.005646	-0.003357	0.27344	0.10773	-0.005493	-0.23239	0.72296	-0.24582	0.096893	0.61645	-0.005493	-0.092163	-0.002289	0.1622	-0.016632	-0.00061	-0.003204
29.624	0.015869	-0.26733	-0.078888	-0.01297	0.008087	-0.046692	-0.017548	-0.007629	0.050659	-0.024567	-0.041656	0.007172	0.054626	0.15121	0.12817	-0.006409	-0.0383	0.13718	0.041962	0.027313	0.075531	1.0789	-0.15854	0.23163	0.44144	-0.016632	-0.22995	-0.000305	-0.56885	-0.2507	-0.00946	-0.002289
29.625	0.007629	-0.24628	-0.045166	-0.005646	0.011597	-0.053558	-0.02655	-0.00351	0.059052	0.002136	-0.000916	-0.00061	-0.015869	0.15121	-0.28107	0.009766	-0.021973	-0.049286	-0.98343	0.086517	0.13916	0.8876	-0.12314	0.19012	0.20065	-0.022736	-0.059052	-0.007782	-2.0125	-0.07309	0	0.000153
29.626	0.009918	-0.23865	-0.041199	-0.00061	0.019989	-0.057983	-0.021667	-0.000305	0.058136	0.005188	-0.046539	0.012665	-0.005035	0.056305	-0.25345	0.002289	-0.020905	-0.084381	-0.30548	0.038605	-0.014496	0.73227	-0.16068	0.045776	-0.067596	-0.020905	0.089722	-0.002747	0.063477	0.19699	-0.001526	-0.002441
29.627	0.005188	-0.25574	-0.06546	0.00824	0.009308	-0.041962	0.004425	-0.000305	0.047913	-0.005493	-0.034332	0.004272	-0.017853	-0.021362	-0.87357	-0.01709	-0.025482	-0.16296	0.009308	0.030823	0.16693	0.44373	-0.070038	0.033264	-0.37781	-0.007782	0.052338	-0.007629	0.62103	0.048218	-0.003815	0.000153
29.628	0.017548	-0.25192	-0.070038	0.024567	0.010376	-0.048676	0.006104	0.001221	0.047455	0.032043	0.11978	0.015106	-0.079956	-0.16007	-0.46493	-0.014648	-0.016937	-0.16449	-0.083618	0.037079	0.22095	0.19531	0.26321	0.11231	-0.44952	0.010529	-0.12436	0.000153	-0.14664	-0.12909	-0.002899	0.011597
29.629	0.011597	-0.23239	-0.028076	0.024261	0.007172	-0.031281	0.003204	0.000458	0.040894	0.044556	-0.004578	0.013428	-0.095825	-0.073853	0.54459	-0.009918	-0.013885	-0.10986	-0.2449	0.041199	0.16693	0.14954	0.39383	-0.007324	-0.17273	0.027161	0.033722	-0.001068	-1.0036	0.040588	-0.006256	0.009918
29.63	0.016174	-0.21896	-0.030518	-0.002136	0.01236	-0.063629	-0.006561	-0.004883	0.032501	-0.001373	0.009766	0.00824	-0.045013	0.043793	0.068054	-0.016937	0.012665	-0.1207	-0.30807	0.020599	0.055084	-0.13077	0.41428	-0.091553	-0.06485	0.028076	0.014954	0.01236	0.16373	0.13336	-0.000763	0.006866
29.631	0.013885	-0.1683	-0.018616	-0.014648	0.004578	-0.06073	-0.037079	-0.003052	0.037842	0.029602	-0.11063	0.012054	0.000153	0.075836	-0.070496	-0.007629	0.017853	-0.089111	0.14435	-0.042572	0.024109	-0.1622	0.29098	0.058594	0.016937	0.037689	-0.07782	0.009308	2.1339	0.1387	-0.000763	0.008545
29.632	0.021515	-0.19104	-0.016632	-0.024109	0.008087	-0.045319	-0.037689	0.000153	0.028076	-0.022278	-0.090027	0.007019	0.04425	0.066376	0.11398	-0.011902	-0.003357	0.015106	0.072784	-0.003967	0.029449	-0.11749	0.26367	0.25436	-0.023956	0.001831	-0.032349	0.003967	1.1356	-0.29602	0	-0.001678
29.633	0.016022	-0.16251	-0.016327	-0.007324	0.00946	-0.04715	-0.041046	-0.005035	0.020447	-0.02594	0.058441	0.011139	0.072021	0.041809	-0.121	-0.027313	0.029907	0.015106	0.11917	-0.009155	0.000153	-0.20706	0.20264	0.20462	0.19134	-0.057678	-0.078583	-0.036163	-0.59952	-0.37903	-0.001373	0.008087
29.634	0.013123	-0.15442	-0.024261	0.022888	0.00473	-0.018311	-0.028992	0.005188	0.014496	-0.007477	0.015717	0.014343	0.018463	-0.030212	-0.38422	-0.032043	0.011292	0.10788	0.36514	-0.11246	-0.016632	-0.21545	0.075989	0.3125	0.34225	-0.053253	-0.025787	-0.090637	0.80536	0.010681	-0.001221	0.003204
29.635	0.006561	-0.1329	-0.016174	0.025177	0.002747	0.000763	-0.039673	0.002441	0.006714	0.014191	0.009613	0.00824	-0.032196	-0.10132	-0.28137	-0.018768	0.003357	0.080719	0.008392	-0.075531	0.046539	-0.1889	-0.31509	0.80856	0.30884	-0.016785	-0.010223	0.03891	-1.7123	0.4483	-0.002441	0.006256
29.636	0.001678	-0.11093	-0.01236	0.033264	0.001984	0.027161	-0.051422	0.011444	0.010071	0.00885	-0.019836	0.004883	-0.054169	-0.070496	-0.094147	-0.02594	0.022888	-0.019836	0.20325	-0.053101	0.02533	-0.32211	-0.39032	0.48218	0.14236	-0.029144	-0.005188	0.018463	-1.2061	0.44449	-0.001831	0.005493
29.637	0.015411	-0.073242	0.014801	0.045319	0.007935	-0.007019	-0.042877	0.005951	0.009918	0.027618	0.21011	0.009766	-0.10086	0.009308	-0.004578	-0.028381	0.00946	0.00351	-0.004425	-0.092163	-0.037231	-0.22568	-0.12253	0.10101	0.11566	-0.015259	-0.034332	0.001984	-0.085144	0.19562	0.005035	-0.010223
29.638	0.0177	-0.041351	0.02243	0.027618	0.009308	0.007019	-0.037537	0.010223	0.003357	0.022888	0.30563	0.019531	-0.075073	-0.079498	0.38803	-0.029144	-0.00885	-0.052185	-0.053558	-0.016327	0.028381	-0.003815	-0.001526	-0.466	-0.12665	-0.020142	0.027313	0.013275	-0.50446	-0.1651	-0.001221	-0.009155
29.639	0.017242	-0.032196	0.005341	-0.016327	0.002899	0.00473	-0.027313	0.009155	0.011444	0.020294	0.041199	0.011444	-0.002747	-0.12207	0.30991	-0.037689	0.026855	-0.12283	-0.44647	0.12711	0.002441	-0.05127	0.31708	-0.64743	-0.35751	-0.006409	0.0914	0.010529	-0.34592	-0.14236	-0.001068	-0.001526
29.64	0.008087	0.041351	-0.006409	-0.004578	-0.005188	0.013123	-0.041046	0.00946	0.009155	0.010071	-0.024414	0.010071	-0.019836	-0.080719	0.11917	-0.042725	0.014801	-0.076904	0.002136	0.091858	-0.006866	-0.053101	0.33356	-0.43198	-0.39032	0.001373	0.13534	0.006561	1.5642	-0.017853	-0.00061	0
29.641	-0.004578	0.088806	-0.012817	-0.015106	0.003052	0.010681	-0.053406	0.012512	0.012817	0.014038	0.041504	0.006256	-0.005341	-0.11734	0.19287	-0.040436	0.001526	-0.11124	0.61172	0.019073	0.00473	0.003662	-0.06424	-0.54153	-0.2684	0.005035	0.059967	-0.005035	0.93216	-0.096283	-0.002136	-0.003052
29.642	-0.005035	0.12344	0.018768	-0.008392	0.001984	0.021515	-0.037079	0.011444	0.020752	-0.006714	0.016937	0.015869	0.032654	-0.11002	0.086517	-0.03006	0.009918	-0.15686	0.85831	-0.013123	-0.016479	0.063477	-0.22263	-0.47745	-0.1088	0.010376	-0.16159	-0.004578	0.010986	-0.08194	-0.003815	-0.001984
29.643	-0.003967	0.17807	0.015106	-0.001068	-0.014496	-0.011139	-0.033722	0.009308	0.014954	-0.007629	-0.13351	0.005646	0.052795	-0.027924	-0.070038	-0.04715	0.015564	-0.14084	0.49774	0.008087	-0.031281	0.057068	-0.18249	-0.41321	-0.033722	0.010834	-0.1181	-0.006409	-0.009155	-0.11414	0.000153	-0.00412
29.644	0.001068	0.24628	-0.004425	-0.011902	-0.018768	-0.027313	-0.034637	0.005646	0.016632	0.008087	-0.19531	0.016327	0.050354	0.005035	-0.159	-0.048828	0.019226	-0.22293	-0.014801	0.042114	-0.016785	0.072327	-0.23544	-0.21545	-0.001984	0.005188	-0.003204	-0.009766	-0.21561	-0.048981	0.002594	-0.021973
29.645	0.006561	0.27634	-0.007172	-0.012817	0.002136	-0.015106	-0.027008	0.002747	0.017853	-0.010376	-0.12009	0.013123	0.026398	0.030518	0.000305	-0.058594	0.005493	-0.19699	-0.64316	0.048218	-0.011902	-0.016174	-0.18814	-0.11276	0.015259	-0.007782	0.086975	-0.009308	-0.18265	-0.052338	0.001221	-0.014343
29.646	0.002899	0.31799	0.027924	0.00473	0.003967	-0.030823	-0.023193	-0.002136	0.027466	0.002747	0.072327	0.015411	-0.007019	0.074615	0.062561	-0.055847	0.002289	-0.2269	-0.50278	0.045319	-0.014038	-0.007477	-0.075684	-0.050964	-0.00061	-0.015259	0.18234	-0.011139	-0.4393	0.01709	-0.002594	-0.017242
29.647	0.008087	0.38025	0.031128	0.002747	0.002289	-0.034943	-0.02533	0.021515	0.024872	0.028381	0.093994	0.013123	-0.056152	0.069733	0.04303	-0.056458	0.02121	-0.21652	-0.21454	0.026245	-0.078278	-0.023346	0.017548	-0.030975	0.02182	-0.003815	0.20309	-0.003967	-0.56564	-0.065765	0.001526	-0.015869
29.648	0.012665	0.42816	0.040436	0.019531	0.001984	-0.036316	0.005188	-0.025787	0.033722	0.030518	0.029755	0.011292	-0.048218	0.015106	-0.19531	-0.042419	0.050049	-0.28107	0.059662	-0.003357	-0.09491	-0.025635	0.10971	-0.2121	0.31921	0.054169	0.13916	-0.00824	0.99075	-0.081024	-0.001221	-0.007172
29.649	0.004578	0.41092	0.022125	0.00351	0.014191	-0.060577	-0.005798	-0.00351	0.027618	0.041962	-0.014801	0.011139	-0.045471	-0.029907	-0.18478	-0.044098	0.042572	-0.35263	0.028839	-0.049286	-0.061035	-0.011444	0.097198	-0.14313	0.57129	0.087585	0.097656	-0.003815	0.91614	-0.035248	-0.000916	-0.006866
29.65	0.014648	0.47211	0.070038	-0.01358	0.006409	-0.04837	-0.013123	-0.006104	0.024872	0.028534	-0.012817	0.008698	-0.003662	0.044098	-0.016785	-0.041046	0.022583	-0.34225	-0.006561	-0.018768	0.07843	-0.003662	0.15533	0.045624	0.80536	-0.012817	0.11368	-0.008087	0.014954	0.031128	0.004578	-0.016174
29.651	0.004578	0.495	0.058289	-0.005341	0.007477	-0.057678	-0.018005	-0.012665	0.002136	0.012665	0.061798	-0.003204	0.048065	0.056458	0.004425	-0.033264	0.031586	-0.26993	0.34012	-0.063324	0.10925	-0.005646	0.19836	0.085449	0.70953	-0.007172	-0.015259	-0.050507	0.055389	0.093536	0.000153	-0.014343
29.652	0.016022	0.51056	0.029449	-0.000916	0.008087	-0.026855	0.009918	-0.014191	-0.001068	0.006256	0.15686	0.003204	0.034332	0	0.027618	-0.027466	0.03952	-0.23041	0.46845	-0.028076	-0.005341	0.052643	0.27039	0.065155	0.42587	-0.011139	-0.082245	-0.24475	-1.077	0.16693	-0.002136	-0.010681
29.653	0.014038	0.50613	0.034943	-0.019836	0.007629	-0.022583	0.012512	-0.016479	0.005951	0.023804	0.13504	0.002289	-0.013733	-0.034485	0.067902	-0.029449	0.033112	-0.18265	0.066833	0.042572	-0.11093	0.04425	0.13504	-0.033112	0.11673	0.007629	-0.025787	0.18738	-1.1665	0.29327	0.000763	-0.017242
29.654	0.012665	0.53848	0.059814	-0.001221	0.001831	-0.038757	0.05661	-0.011292	-0.001068	0.036011	0.033875	0.014496	-0.018921	-0.070801	0.055695	-0.015259	0.004578	-0.20569	0.20538	0.019836	0.036774	-0.065613	0.052338	-0.16357	-0.36743	-0.015717	-0.018768	-0.15213	-0.008392	0.43304	-0.000458	-0.019379
29.655	0.006256	0.5777	0.086517	-0.009308	0.001373	-0.005798	0.079346	-0.0177	0.003662	0.02182	-0.15991	-0.001678	-0.006561	-0.029144	0.13733	-0.003204	-0.01709	-0.098419	0.33875	-0.062866	0.094452	-0.083313	-0.21835	-0.2385	-0.70389	-0.001068	-0.063782	-0.43533	0.094452	0.042114	0.000916	-0.023041
